<svg width="2146" height="2146" xmlns="http://www.w3.org/2000/svg" xmlns:xlink="http://www.w3.org/1999/xlink" xml:space="preserve" overflow="hidden"><defs><clipPath id="clip0"><rect x="1196" y="104" width="2146" height="2146"/></clipPath></defs><g clip-path="url(#clip0)" transform="translate(-1196 -104)"><path d="M2277 979 2475.34 979" stroke="#000000" stroke-width="2.29167" stroke-linecap="square" stroke-miterlimit="8" stroke-dasharray="6.875 2.29167" fill="none" fill-rule="evenodd"/><path d="M1402.5 1357.21 2976.36 1357.21 2976.36 1361.79 1402.5 1361.79ZM2971.78 1345.75 2999.28 1359.5 2971.78 1373.25Z"/><path d="M2.29167-5.4166e-07 2.29202 1503.95-2.29131 1503.95-2.29167 5.4166e-07ZM13.7504 1499.37 0.000360892 1526.87-13.7496 1499.37Z" transform="matrix(1 0 0 -1 2080.5 1966.37)"/><text font-family="Times New Roman,Times New Roman_MSFontService,sans-serif" font-weight="400" font-size="92" transform="matrix(1 0 0 1 2926.27 1320)">z</text><text font-family="Times New Roman,Times New Roman_MSFontService,sans-serif" font-weight="400" font-size="92" transform="matrix(1 0 0 1 2146.82 500)">x</text><path d="M2584.5 797C2584.5 792.306 2588.08 788.5 2592.5 788.5 2596.92 788.5 2600.5 792.306 2600.5 797 2600.5 801.694 2596.92 805.5 2592.5 805.5 2588.08 805.5 2584.5 801.694 2584.5 797Z" stroke="#000000" stroke-width="4.58333" stroke-miterlimit="8" fill-rule="evenodd"/><path d="M2269.5 980C2269.5 975.306 2273.31 971.5 2278 971.5 2282.69 971.5 2286.5 975.306 2286.5 980 2286.5 984.695 2282.69 988.5 2278 988.5 2273.31 988.5 2269.5 984.695 2269.5 980Z" stroke="#000000" stroke-width="4.58333" stroke-miterlimit="8" fill-rule="evenodd"/><path d="M2444.5 1168.5C2444.5 1164.08 2448.31 1160.5 2453 1160.5 2457.69 1160.5 2461.5 1164.08 2461.5 1168.5 2461.5 1172.92 2457.69 1176.5 2453 1176.5 2448.31 1176.5 2444.5 1172.92 2444.5 1168.5Z" stroke="#000000" stroke-width="4.58333" stroke-miterlimit="8" fill-rule="evenodd"/><path d="M0 0 1333.98 778.998" stroke="#000000" stroke-width="2.29167" stroke-miterlimit="8" fill="none" fill-rule="evenodd" transform="matrix(1 0 0 -1 1789 1266)"/><path d="M0 0 420.259 1131.59" stroke="#000000" stroke-width="2.29167" stroke-miterlimit="8" fill="none" fill-rule="evenodd" transform="matrix(-1 0 0 1 2721.26 439)"/><text font-family="Times New Roman,Times New Roman_MSFontService,sans-serif" font-weight="400" font-size="83" transform="matrix(1 0 0 1 2508.62 1169)">P</text><text font-family="Times New Roman,Times New Roman_MSFontService,sans-serif" font-weight="400" font-size="55" transform="matrix(1 0 0 1 2554.45 1189)">1 </text><text font-family="Times New Roman,Times New Roman_MSFontService,sans-serif" font-weight="400" font-size="83" transform="matrix(1 0 0 1 2595.7 1169)">(z</text><text font-family="Times New Roman,Times New Roman_MSFontService,sans-serif" font-weight="400" font-size="55" transform="matrix(1 0 0 1 2659.87 1189)">1</text><text font-family="Times New Roman,Times New Roman_MSFontService,sans-serif" font-weight="400" font-size="83" transform="matrix(1 0 0 1 2687.37 1169)">,x</text><text font-family="Times New Roman,Times New Roman_MSFontService,sans-serif" font-weight="400" font-size="55" transform="matrix(1 0 0 1 2749.24 1189)">1</text><text font-family="Times New Roman,Times New Roman_MSFontService,sans-serif" font-weight="400" font-size="83" transform="matrix(1 0 0 1 2776.74 1169)">,θ</text><text font-family="Times New Roman,Times New Roman_MSFontService,sans-serif" font-weight="400" font-size="55" transform="matrix(1 0 0 1 2836.9 1189)">1</text><text font-family="Times New Roman,Times New Roman_MSFontService,sans-serif" font-weight="400" font-size="83" transform="matrix(1 0 0 1 2864.4 1169)">)</text><text font-family="Times New Roman,Times New Roman_MSFontService,sans-serif" font-weight="400" font-size="83" transform="matrix(1 0 0 1 2099.11 839)">P</text><text font-family="Times New Roman,Times New Roman_MSFontService,sans-serif" font-weight="400" font-size="55" transform="matrix(1 0 0 1 2144.94 859)">2 </text><text font-family="Times New Roman,Times New Roman_MSFontService,sans-serif" font-weight="400" font-size="83" transform="matrix(1 0 0 1 2186.19 839)">(z</text><text font-family="Times New Roman,Times New Roman_MSFontService,sans-serif" font-weight="400" font-size="55" transform="matrix(1 0 0 1 2250.36 859)">2</text><text font-family="Times New Roman,Times New Roman_MSFontService,sans-serif" font-weight="400" font-size="83" transform="matrix(1 0 0 1 2277.86 839)">,x</text><text font-family="Times New Roman,Times New Roman_MSFontService,sans-serif" font-weight="400" font-size="55" transform="matrix(1 0 0 1 2339.73 859)">2</text><text font-family="Times New Roman,Times New Roman_MSFontService,sans-serif" font-weight="400" font-size="83" transform="matrix(1 0 0 1 2367.23 839)">,θ</text><text font-family="Times New Roman,Times New Roman_MSFontService,sans-serif" font-weight="400" font-size="55" transform="matrix(1 0 0 1 2427.39 859)">2</text><text font-family="Times New Roman,Times New Roman_MSFontService,sans-serif" font-weight="400" font-size="83" transform="matrix(1 0 0 1 2454.89 839)">)</text><text font-family="Times New Roman,Times New Roman_MSFontService,sans-serif" font-weight="400" font-size="83" transform="matrix(1 0 0 1 2694.37 844)">S</text><text font-family="Times New Roman,Times New Roman_MSFontService,sans-serif" font-weight="400" font-size="83" transform="matrix(1 0 0 1 2767.7 844)">(z , x)</text><path d="M2419.71 1250.94C2445.68 1281.8 2455.77 1321.76 2447.14 1359.6" stroke="#4472C4" stroke-width="2.29167" stroke-miterlimit="8" fill="none" fill-rule="evenodd"/><text font-family="Times New Roman,Times New Roman_MSFontService,sans-serif" font-weight="400" font-size="55" transform="matrix(1 0 0 1 2457.33 1306)">θ</text><text font-family="Times New Roman,Times New Roman_MSFontService,sans-serif" font-weight="400" font-size="37" transform="matrix(1 0 0 1 2483.68 1319)">1</text><path d="M2344.4 942.175C2354.4 953.697 2362.29 966.707 2367.71 980.637" stroke="#4472C4" stroke-width="2.29167" stroke-miterlimit="8" fill="none" fill-rule="evenodd"/><text font-family="Times New Roman,Times New Roman_MSFontService,sans-serif" font-weight="400" font-size="50" transform="matrix(1 0 0 1 2374.17 963)">θ</text><text font-family="Times New Roman,Times New Roman_MSFontService,sans-serif" font-weight="400" font-size="34" transform="matrix(1 0 0 1 2398.23 975)">2</text><text font-family="Dream Han Sans L CN L50,Dream Han Sans L CN L50_MSFontService,sans-serif" font-weight="500" font-size="64" transform="matrix(1 0 0 1 2050.67 415)">东</text><text font-family="Times New Roman,Times New Roman_MSFontService,sans-serif" font-weight="400" font-size="64" transform="matrix(1 0 0 1 3147.67 1364)">0</text><text font-family="DengXian,DengXian_MSFontService,sans-serif" font-weight="400" font-size="64" transform="matrix(1 0 0 1 3179.75 1364)">°</text><text font-family="Times New Roman,Times New Roman_MSFontService,sans-serif" font-weight="400" font-size="64" transform="matrix(1 0 0 1 1936.11 494)">-</text><text font-family="Times New Roman,Times New Roman_MSFontService,sans-serif" font-weight="400" font-size="64" transform="matrix(1 0 0 1 1957.3 494)">90</text><text font-family="DengXian,DengXian_MSFontService,sans-serif" font-weight="400" font-size="64" transform="matrix(1 0 0 1 2021.47 494)">°</text><text font-family="Times New Roman,Times New Roman_MSFontService,sans-serif" font-weight="400" font-size="64" transform="matrix(1 0 0 1 1376.05 1297)">-</text><text font-family="Times New Roman,Times New Roman_MSFontService,sans-serif" font-weight="400" font-size="64" transform="matrix(1 0 0 1 1397.25 1297)">180</text><text font-family="DengXian,DengXian_MSFontService,sans-serif" font-weight="400" font-size="64" transform="matrix(1 0 0 1 1493.5 1297)">°</text><text font-family="Times New Roman,Times New Roman_MSFontService,sans-serif" font-weight="400" font-size="64" transform="matrix(1 0 0 1 1398.06 1450)">180</text><text font-family="DengXian,DengXian_MSFontService,sans-serif" font-weight="400" font-size="64" transform="matrix(1 0 0 1 1494.31 1450)">°</text><text font-family="Times New Roman,Times New Roman_MSFontService,sans-serif" font-weight="400" font-size="64" transform="matrix(1 0 0 1 1957.2 1959)">90</text><text font-family="DengXian,DengXian_MSFontService,sans-serif" font-weight="400" font-size="64" transform="matrix(1 0 0 1 2021.37 1959)">°</text><text font-family="Dream Han Sans L CN L50,Dream Han Sans L CN L50_MSFontService,sans-serif" font-weight="500" font-size="64" transform="matrix(1 0 0 1 3014.88 1379)">南</text><text font-family="Dream Han Sans L CN L50,Dream Han Sans L CN L50_MSFontService,sans-serif" font-weight="500" font-size="64" transform="matrix(1 0 0 1 2050.67 2052)">西</text><text font-family="Dream Han Sans L CN L50,Dream Han Sans L CN L50_MSFontService,sans-serif" font-weight="500" font-size="64" transform="matrix(1 0 0 1 1322.9 1379)">北</text></g></svg>